<?xml version="1.0" encoding="UTF-8"?>
<svg id="Layer_1" data-name="Layer 1" xmlns="http://www.w3.org/2000/svg" version="1.1" viewBox="0 0 425 425">
  <defs>
    <style>
      .cls-1 {
        fill: #f9b233;
      }

      .cls-1, .cls-2, .cls-3 {
        stroke-width: 3px;
      }

      .cls-1, .cls-2, .cls-3, .cls-4 {
        stroke: #1d1d1b;
        stroke-miterlimit: 10;
      }

      .cls-5 {
        fill: #463f92;
      }

      .cls-5, .cls-6 {
        stroke-width: 0px;
      }

      .cls-2, .cls-4 {
        fill: none;
      }

      .cls-3 {
        fill: #fffdfe;
      }

      .cls-4 {
        stroke-width: 2px;
      }

      .cls-6 {
        fill: #c6c6c6;
        opacity: .8;
      }
    </style>
  </defs>
  <polyline class="cls-1" points="243.8 107.5 212.5 87.5 181.2 107.5"/>
  <polyline class="cls-3" points="92.5 337.6 92.5 108 332.5 108 332.5 337.6"/>
  <polyline class="cls-6" points="317.5 123 317.5 259.2 107.5 259.2 107.5 123"/>
  <rect class="cls-5" x="185.5" y="172.3" width="20" height="86.9"/>
  <rect class="cls-5" x="287.5" y="134.6" width="20" height="124.6"/>
  <rect class="cls-5" x="219.5" y="145.4" width="20" height="113.8"/>
  <rect class="cls-5" x="253.5" y="172.3" width="20" height="86.9"/>
  <rect class="cls-5" x="151.5" y="192.5" width="20" height="66.7"/>
  <rect class="cls-5" x="117.5" y="164.2" width="20" height="95"/>
  <line class="cls-4" x1="311.6" y1="259.2" x2="107.5" y2="259.2"/>
  <polygon class="cls-1" points="212.5 280.7 92.5 204.1 92.5 164.2 62.5 183.4 62.5 337.5 362.5 337.5 362.5 183.4 332.5 164.2 332.5 204.1 212.5 280.7"/>
  <line class="cls-2" x1="92.5" y1="204.1" x2="62.5" y2="184.9"/>
  <line class="cls-2" x1="362.5" y1="184.9" x2="332.5" y2="204.1"/>
</svg>
